<svg width="20" height="20" viewBox="0 0 20 20" fill="none" xmlns="http://www.w3.org/2000/svg">
<circle cx="10" cy="10" r="10" fill="white"/>
<circle cx="10" cy="10" r="9.5" fill="#4D9E72" fill-opacity="0.1" stroke="#4D9E72"/>
<path d="M10.2464 13.6235C10.0958 13.54 9.91288 13.5399 9.76219 13.6232L7.04266 15.1268C6.67738 15.3287 6.24006 15.0206 6.30727 14.6087L6.83872 11.3509C6.86429 11.1941 6.81387 11.0346 6.70289 10.921L4.43087 8.59539C4.1463 8.30411 4.31063 7.81303 4.71318 7.75168L7.80466 7.28055C7.96957 7.25542 8.11108 7.1497 8.18196 6.99869L9.54737 4.08941C9.72732 3.70599 10.2727 3.70599 10.4526 4.08941L11.818 6.99869C11.8889 7.1497 12.0304 7.25542 12.1953 7.28055L15.2868 7.75168C15.6894 7.81303 15.8537 8.30411 15.5691 8.59539L13.2971 10.921C13.1861 11.0346 13.1357 11.1941 13.1613 11.3509L13.6925 14.6074C13.7598 15.0196 13.322 15.3277 12.9567 15.1253L10.2464 13.6235Z" fill="#FFC90B"/>
</svg>
